<?xml version="1.0" encoding="UTF-8"?>
<svg xmlns="http://www.w3.org/2000/svg" width="1404" height="276" viewBox="0 0 1404 276">
  <rect x="0" y="0" width="1404" height="276" fill="#ffffff" />
  <g font-family="monospace" font-size="12" fill="#111111" text-anchor="middle" xml:space="preserve">
    <text x="6.00" y="9.60" fill="#00d7ff">┌</text>
    <text x="18.00" y="9.60" fill="#00d7ff">─</text>
    <text x="30.00" y="9.60" fill="#00d7ff">─</text>
    <text x="42.00" y="9.60" fill="#00d7ff">─</text>
    <text x="54.00" y="9.60" fill="#00d7ff">─</text>
    <text x="66.00" y="9.60" fill="#00d7ff">─</text>
    <text x="78.00" y="9.60" fill="#00d7ff">─</text>
    <text x="90.00" y="9.60" fill="#00d7ff">┐</text>
    <text x="150.00" y="9.60" fill="#ffaf00">┌</text>
    <text x="162.00" y="9.60" fill="#ffaf00">─</text>
    <text x="174.00" y="9.60" fill="#ffaf00">─</text>
    <text x="186.00" y="9.60" fill="#ffaf00">─</text>
    <text x="198.00" y="9.60" fill="#ffaf00">─</text>
    <text x="210.00" y="9.60" fill="#ffaf00">─</text>
    <text x="222.00" y="9.60" fill="#ffaf00">─</text>
    <text x="234.00" y="9.60" fill="#ffaf00">┐</text>
    <text x="294.00" y="9.60" fill="#87ff00">┌</text>
    <text x="306.00" y="9.60" fill="#87ff00">─</text>
    <text x="318.00" y="9.60" fill="#87ff00">─</text>
    <text x="330.00" y="9.60" fill="#87ff00">─</text>
    <text x="342.00" y="9.60" fill="#87ff00">─</text>
    <text x="354.00" y="9.60" fill="#87ff00">─</text>
    <text x="366.00" y="9.60" fill="#87ff00">─</text>
    <text x="378.00" y="9.60" fill="#87ff00">┐</text>
    <text x="438.00" y="9.60" fill="#ff00af">┌</text>
    <text x="450.00" y="9.60" fill="#ff00af">─</text>
    <text x="462.00" y="9.60" fill="#ff00af">─</text>
    <text x="474.00" y="9.60" fill="#ff00af">─</text>
    <text x="486.00" y="9.60" fill="#ff00af">─</text>
    <text x="498.00" y="9.60" fill="#ff00af">─</text>
    <text x="510.00" y="9.60" fill="#ff00af">─</text>
    <text x="522.00" y="9.60" fill="#ff00af">┐</text>
    <text x="582.00" y="9.60" fill="#00afff">┌</text>
    <text x="594.00" y="9.60" fill="#00afff">─</text>
    <text x="606.00" y="9.60" fill="#00afff">─</text>
    <text x="618.00" y="9.60" fill="#00afff">─</text>
    <text x="630.00" y="9.60" fill="#00afff">─</text>
    <text x="642.00" y="9.60" fill="#00afff">─</text>
    <text x="654.00" y="9.60" fill="#00afff">─</text>
    <text x="666.00" y="9.60" fill="#00afff">┐</text>
    <text x="726.00" y="9.60" fill="#ffff00">┌</text>
    <text x="738.00" y="9.60" fill="#ffff00">─</text>
    <text x="750.00" y="9.60" fill="#ffff00">─</text>
    <text x="762.00" y="9.60" fill="#ffff00">─</text>
    <text x="774.00" y="9.60" fill="#ffff00">─</text>
    <text x="786.00" y="9.60" fill="#ffff00">─</text>
    <text x="798.00" y="9.60" fill="#ffff00">─</text>
    <text x="810.00" y="9.60" fill="#ffff00">┐</text>
    <text x="870.00" y="9.60" fill="#d70000">┌</text>
    <text x="882.00" y="9.60" fill="#d70000">─</text>
    <text x="894.00" y="9.60" fill="#d70000">─</text>
    <text x="906.00" y="9.60" fill="#d70000">─</text>
    <text x="918.00" y="9.60" fill="#d70000">─</text>
    <text x="930.00" y="9.60" fill="#d70000">─</text>
    <text x="942.00" y="9.60" fill="#d70000">─</text>
    <text x="954.00" y="9.60" fill="#d70000">┐</text>
    <text x="1014.00" y="9.60" fill="#5fd7ff">┌</text>
    <text x="1026.00" y="9.60" fill="#5fd7ff">─</text>
    <text x="1038.00" y="9.60" fill="#5fd7ff">─</text>
    <text x="1050.00" y="9.60" fill="#5fd7ff">─</text>
    <text x="1062.00" y="9.60" fill="#5fd7ff">─</text>
    <text x="1074.00" y="9.60" fill="#5fd7ff">─</text>
    <text x="1086.00" y="9.60" fill="#5fd7ff">─</text>
    <text x="1098.00" y="9.60" fill="#5fd7ff">┐</text>
    <text x="1158.00" y="9.60" fill="#00d7ff">┌</text>
    <text x="1170.00" y="9.60" fill="#00d7ff">─</text>
    <text x="1182.00" y="9.60" fill="#00d7ff">─</text>
    <text x="1194.00" y="9.60" fill="#00d7ff">─</text>
    <text x="1206.00" y="9.60" fill="#00d7ff">─</text>
    <text x="1218.00" y="9.60" fill="#00d7ff">─</text>
    <text x="1230.00" y="9.60" fill="#00d7ff">─</text>
    <text x="1242.00" y="9.60" fill="#00d7ff">┐</text>
    <text x="1302.00" y="9.60" fill="#ffaf00">┌</text>
    <text x="1314.00" y="9.60" fill="#ffaf00">─</text>
    <text x="1326.00" y="9.60" fill="#ffaf00">─</text>
    <text x="1338.00" y="9.60" fill="#ffaf00">─</text>
    <text x="1350.00" y="9.60" fill="#ffaf00">─</text>
    <text x="1362.00" y="9.60" fill="#ffaf00">─</text>
    <text x="1374.00" y="9.60" fill="#ffaf00">─</text>
    <text x="1386.00" y="9.60" fill="#ffaf00">┐</text>
    <text x="6.00" y="21.60" fill="#00d7ff">│</text>
    <text x="42.00" y="21.60" fill="#00d7ff">d</text>
    <text x="54.00" y="21.60" fill="#00d7ff">1</text>
    <text x="90.00" y="21.60" fill="#00d7ff">│</text>
    <text x="150.00" y="21.60" fill="#ffaf00">│</text>
    <text x="186.00" y="21.60" fill="#ffaf00">d</text>
    <text x="198.00" y="21.60" fill="#ffaf00">2</text>
    <text x="234.00" y="21.60" fill="#ffaf00">│</text>
    <text x="294.00" y="21.60" fill="#87ff00">│</text>
    <text x="330.00" y="21.60" fill="#87ff00">d</text>
    <text x="342.00" y="21.60" fill="#87ff00">3</text>
    <text x="378.00" y="21.60" fill="#87ff00">│</text>
    <text x="438.00" y="21.60" fill="#ff00af">│</text>
    <text x="474.00" y="21.60" fill="#ff00af">d</text>
    <text x="486.00" y="21.60" fill="#ff00af">4</text>
    <text x="522.00" y="21.60" fill="#ff00af">│</text>
    <text x="582.00" y="21.60" fill="#00afff">│</text>
    <text x="618.00" y="21.60" fill="#00afff">d</text>
    <text x="630.00" y="21.60" fill="#00afff">5</text>
    <text x="666.00" y="21.60" fill="#00afff">│</text>
    <text x="726.00" y="21.60" fill="#ffff00">│</text>
    <text x="762.00" y="21.60" fill="#ffff00">d</text>
    <text x="774.00" y="21.60" fill="#ffff00">6</text>
    <text x="810.00" y="21.60" fill="#ffff00">│</text>
    <text x="870.00" y="21.60" fill="#d70000">│</text>
    <text x="906.00" y="21.60" fill="#d70000">d</text>
    <text x="918.00" y="21.60" fill="#d70000">7</text>
    <text x="954.00" y="21.60" fill="#d70000">│</text>
    <text x="1014.00" y="21.60" fill="#5fd7ff">│</text>
    <text x="1050.00" y="21.60" fill="#5fd7ff">d</text>
    <text x="1062.00" y="21.60" fill="#5fd7ff">8</text>
    <text x="1098.00" y="21.60" fill="#5fd7ff">│</text>
    <text x="1158.00" y="21.60" fill="#00d7ff">│</text>
    <text x="1194.00" y="21.60" fill="#00d7ff">d</text>
    <text x="1206.00" y="21.60" fill="#00d7ff">9</text>
    <text x="1242.00" y="21.60" fill="#00d7ff">│</text>
    <text x="1302.00" y="21.60" fill="#ffaf00">│</text>
    <text x="1326.00" y="21.60" fill="#ffaf00">v</text>
    <text x="1338.00" y="21.60" fill="#ffaf00">i</text>
    <text x="1350.00" y="21.60" fill="#ffaf00">s</text>
    <text x="1386.00" y="21.60" fill="#ffaf00">│</text>
    <text x="6.00" y="33.60" fill="#00d7ff">└</text>
    <text x="18.00" y="33.60" fill="#00d7ff">─</text>
    <text x="30.00" y="33.60" fill="#00d7ff">─</text>
    <text x="42.00" y="33.60" fill="#00d7ff">─</text>
    <text x="54.00" y="33.60" fill="#00d7ff">─</text>
    <text x="66.00" y="33.60" fill="#00d7ff">─</text>
    <text x="78.00" y="33.60" fill="#00d7ff">─</text>
    <text x="90.00" y="33.60" fill="#00d7ff">┘</text>
    <text x="150.00" y="33.60" fill="#ffaf00">└</text>
    <text x="162.00" y="33.60" fill="#ffaf00">─</text>
    <text x="174.00" y="33.60" fill="#ffaf00">─</text>
    <text x="186.00" y="33.60" fill="#ffaf00">─</text>
    <text x="198.00" y="33.60" fill="#ffaf00">─</text>
    <text x="210.00" y="33.60" fill="#ffaf00">─</text>
    <text x="222.00" y="33.60" fill="#ffaf00">─</text>
    <text x="234.00" y="33.60" fill="#ffaf00">┘</text>
    <text x="294.00" y="33.60" fill="#87ff00">└</text>
    <text x="306.00" y="33.60" fill="#87ff00">─</text>
    <text x="318.00" y="33.60" fill="#87ff00">─</text>
    <text x="330.00" y="33.60" fill="#87ff00">─</text>
    <text x="342.00" y="33.60" fill="#87ff00">─</text>
    <text x="354.00" y="33.60" fill="#87ff00">─</text>
    <text x="366.00" y="33.60" fill="#87ff00">─</text>
    <text x="378.00" y="33.60" fill="#87ff00">┘</text>
    <text x="438.00" y="33.60" fill="#ff00af">└</text>
    <text x="450.00" y="33.60" fill="#ff00af">─</text>
    <text x="462.00" y="33.60" fill="#ff00af">─</text>
    <text x="474.00" y="33.60" fill="#ff00af">─</text>
    <text x="486.00" y="33.60" fill="#ff00af">─</text>
    <text x="498.00" y="33.60" fill="#ff00af">─</text>
    <text x="510.00" y="33.60" fill="#ff00af">─</text>
    <text x="522.00" y="33.60" fill="#ff00af">┘</text>
    <text x="582.00" y="33.60" fill="#00afff">└</text>
    <text x="594.00" y="33.60" fill="#00afff">─</text>
    <text x="606.00" y="33.60" fill="#00afff">─</text>
    <text x="618.00" y="33.60" fill="#00afff">─</text>
    <text x="630.00" y="33.60" fill="#00afff">─</text>
    <text x="642.00" y="33.60" fill="#00afff">─</text>
    <text x="654.00" y="33.60" fill="#00afff">─</text>
    <text x="666.00" y="33.60" fill="#00afff">┘</text>
    <text x="726.00" y="33.60" fill="#ffff00">└</text>
    <text x="738.00" y="33.60" fill="#ffff00">─</text>
    <text x="750.00" y="33.60" fill="#ffff00">─</text>
    <text x="762.00" y="33.60" fill="#ffff00">─</text>
    <text x="774.00" y="33.60" fill="#ffff00">─</text>
    <text x="786.00" y="33.60" fill="#ffff00">─</text>
    <text x="798.00" y="33.60" fill="#ffff00">─</text>
    <text x="810.00" y="33.60" fill="#ffff00">┘</text>
    <text x="870.00" y="33.60" fill="#d70000">└</text>
    <text x="882.00" y="33.60" fill="#d70000">─</text>
    <text x="894.00" y="33.60" fill="#d70000">─</text>
    <text x="906.00" y="33.60" fill="#d70000">─</text>
    <text x="918.00" y="33.60" fill="#d70000">─</text>
    <text x="930.00" y="33.60" fill="#d70000">─</text>
    <text x="942.00" y="33.60" fill="#d70000">─</text>
    <text x="954.00" y="33.60" fill="#d70000">┘</text>
    <text x="1014.00" y="33.60" fill="#5fd7ff">└</text>
    <text x="1026.00" y="33.60" fill="#5fd7ff">─</text>
    <text x="1038.00" y="33.60" fill="#5fd7ff">─</text>
    <text x="1050.00" y="33.60" fill="#5fd7ff">─</text>
    <text x="1062.00" y="33.60" fill="#5fd7ff">─</text>
    <text x="1074.00" y="33.60" fill="#5fd7ff">─</text>
    <text x="1086.00" y="33.60" fill="#5fd7ff">─</text>
    <text x="1098.00" y="33.60" fill="#5fd7ff">┘</text>
    <text x="1158.00" y="33.60" fill="#00d7ff">└</text>
    <text x="1170.00" y="33.60" fill="#00d7ff">─</text>
    <text x="1182.00" y="33.60" fill="#00d7ff">─</text>
    <text x="1194.00" y="33.60" fill="#00d7ff">─</text>
    <text x="1206.00" y="33.60" fill="#00d7ff">─</text>
    <text x="1218.00" y="33.60" fill="#00d7ff">─</text>
    <text x="1230.00" y="33.60" fill="#00d7ff">─</text>
    <text x="1242.00" y="33.60" fill="#00d7ff">┘</text>
    <text x="1302.00" y="33.60" fill="#ffaf00">└</text>
    <text x="1314.00" y="33.60" fill="#ffaf00">─</text>
    <text x="1326.00" y="33.60" fill="#ffaf00">─</text>
    <text x="1338.00" y="33.60" fill="#ffaf00">─</text>
    <text x="1350.00" y="33.60" fill="#ffaf00">─</text>
    <text x="1362.00" y="33.60" fill="#ffaf00">─</text>
    <text x="1374.00" y="33.60" fill="#ffaf00">─</text>
    <text x="1386.00" y="33.60" fill="#ffaf00">┘</text>
    <text x="54.00" y="45.60" fill="#00d7ff">└</text>
    <text x="66.00" y="45.60" fill="#00d7ff">─</text>
    <text x="78.00" y="45.60" fill="#00d7ff">─</text>
    <text x="90.00" y="45.60" fill="#00d7ff">─</text>
    <text x="102.00" y="45.60" fill="#00d7ff">─</text>
    <text x="114.00" y="45.60" fill="#00d7ff">─</text>
    <text x="126.00" y="45.60" fill="#00d7ff">─</text>
    <text x="138.00" y="45.60" fill="#00d7ff">─</text>
    <text x="150.00" y="45.60" fill="#00d7ff">─</text>
    <text x="162.00" y="45.60" fill="#00d7ff">─</text>
    <text x="174.00" y="45.60" fill="#00d7ff">─</text>
    <text x="186.00" y="45.60" fill="#00d7ff">─</text>
    <text x="198.00" y="45.60" fill="#111111">┼</text>
    <text x="210.00" y="45.60" fill="#00d7ff">─</text>
    <text x="222.00" y="45.60" fill="#00d7ff">─</text>
    <text x="234.00" y="45.60" fill="#00d7ff">─</text>
    <text x="246.00" y="45.60" fill="#00d7ff">─</text>
    <text x="258.00" y="45.60" fill="#00d7ff">─</text>
    <text x="270.00" y="45.60" fill="#00d7ff">─</text>
    <text x="282.00" y="45.60" fill="#00d7ff">─</text>
    <text x="294.00" y="45.60" fill="#00d7ff">─</text>
    <text x="306.00" y="45.60" fill="#00d7ff">─</text>
    <text x="318.00" y="45.60" fill="#00d7ff">─</text>
    <text x="330.00" y="45.60" fill="#00d7ff">─</text>
    <text x="342.00" y="45.60" fill="#111111">┼</text>
    <text x="354.00" y="45.60" fill="#00d7ff">─</text>
    <text x="366.00" y="45.60" fill="#00d7ff">─</text>
    <text x="378.00" y="45.60" fill="#00d7ff">─</text>
    <text x="390.00" y="45.60" fill="#00d7ff">─</text>
    <text x="402.00" y="45.60" fill="#00d7ff">─</text>
    <text x="414.00" y="45.60" fill="#00d7ff">─</text>
    <text x="426.00" y="45.60" fill="#00d7ff">─</text>
    <text x="438.00" y="45.60" fill="#00d7ff">─</text>
    <text x="450.00" y="45.60" fill="#00d7ff">─</text>
    <text x="462.00" y="45.60" fill="#00d7ff">─</text>
    <text x="474.00" y="45.60" fill="#00d7ff">─</text>
    <text x="486.00" y="45.60" fill="#111111">┼</text>
    <text x="498.00" y="45.60" fill="#00d7ff">─</text>
    <text x="510.00" y="45.60" fill="#00d7ff">─</text>
    <text x="522.00" y="45.60" fill="#00d7ff">─</text>
    <text x="534.00" y="45.60" fill="#00d7ff">─</text>
    <text x="546.00" y="45.60" fill="#00d7ff">─</text>
    <text x="558.00" y="45.60" fill="#00d7ff">─</text>
    <text x="570.00" y="45.60" fill="#00d7ff">─</text>
    <text x="582.00" y="45.60" fill="#00d7ff">─</text>
    <text x="594.00" y="45.60" fill="#00d7ff">─</text>
    <text x="606.00" y="45.60" fill="#00d7ff">─</text>
    <text x="618.00" y="45.60" fill="#00d7ff">─</text>
    <text x="630.00" y="45.60" fill="#111111">┤</text>
    <text x="774.00" y="45.60" fill="#ffff00">└</text>
    <text x="786.00" y="45.60" fill="#ffff00">─</text>
    <text x="798.00" y="45.60" fill="#ffff00">─</text>
    <text x="810.00" y="45.60" fill="#ffff00">─</text>
    <text x="822.00" y="45.60" fill="#ffff00">─</text>
    <text x="834.00" y="45.60" fill="#ffff00">─</text>
    <text x="846.00" y="45.60" fill="#ffff00">─</text>
    <text x="858.00" y="45.60" fill="#ffff00">─</text>
    <text x="870.00" y="45.60" fill="#ffff00">─</text>
    <text x="882.00" y="45.60" fill="#ffff00">─</text>
    <text x="894.00" y="45.60" fill="#ffff00">─</text>
    <text x="906.00" y="45.60" fill="#ffff00">─</text>
    <text x="918.00" y="45.60" fill="#111111">┤</text>
    <text x="1062.00" y="45.60" fill="#5fd7ff">│</text>
    <text x="1206.00" y="45.60" fill="#00d7ff">│</text>
    <text x="1350.00" y="45.60" fill="#ffaf00">│</text>
    <text x="198.00" y="57.60" fill="#ffaf00">└</text>
    <text x="210.00" y="57.60" fill="#ffaf00">─</text>
    <text x="222.00" y="57.60" fill="#ffaf00">─</text>
    <text x="234.00" y="57.60" fill="#ffaf00">─</text>
    <text x="246.00" y="57.60" fill="#ffaf00">─</text>
    <text x="258.00" y="57.60" fill="#ffaf00">─</text>
    <text x="270.00" y="57.60" fill="#ffaf00">─</text>
    <text x="282.00" y="57.60" fill="#ffaf00">─</text>
    <text x="294.00" y="57.60" fill="#ffaf00">─</text>
    <text x="306.00" y="57.60" fill="#ffaf00">─</text>
    <text x="318.00" y="57.60" fill="#ffaf00">─</text>
    <text x="330.00" y="57.60" fill="#ffaf00">─</text>
    <text x="342.00" y="57.60" fill="#111111">┴</text>
    <text x="354.00" y="57.60" fill="#111111">─</text>
    <text x="366.00" y="57.60" fill="#111111">─</text>
    <text x="378.00" y="57.60" fill="#111111">─</text>
    <text x="390.00" y="57.60" fill="#111111">─</text>
    <text x="402.00" y="57.60" fill="#111111">─</text>
    <text x="414.00" y="57.60" fill="#111111">─</text>
    <text x="426.00" y="57.60" fill="#111111">─</text>
    <text x="438.00" y="57.60" fill="#111111">─</text>
    <text x="450.00" y="57.60" fill="#111111">─</text>
    <text x="462.00" y="57.60" fill="#111111">─</text>
    <text x="474.00" y="57.60" fill="#111111">─</text>
    <text x="486.00" y="57.60" fill="#111111">┼</text>
    <text x="498.00" y="57.60" fill="#111111">─</text>
    <text x="510.00" y="57.60" fill="#111111">─</text>
    <text x="522.00" y="57.60" fill="#111111">─</text>
    <text x="534.00" y="57.60" fill="#111111">─</text>
    <text x="546.00" y="57.60" fill="#111111">─</text>
    <text x="558.00" y="57.60" fill="#111111">─</text>
    <text x="570.00" y="57.60" fill="#111111">─</text>
    <text x="582.00" y="57.60" fill="#111111">─</text>
    <text x="594.00" y="57.60" fill="#111111">─</text>
    <text x="606.00" y="57.60" fill="#111111">─</text>
    <text x="618.00" y="57.60" fill="#111111">─</text>
    <text x="630.00" y="57.60" fill="#111111">┼</text>
    <text x="642.00" y="57.60" fill="#111111">─</text>
    <text x="654.00" y="57.60" fill="#111111">─</text>
    <text x="666.00" y="57.60" fill="#111111">─</text>
    <text x="678.00" y="57.60" fill="#111111">─</text>
    <text x="690.00" y="57.60" fill="#111111">─</text>
    <text x="702.00" y="57.60" fill="#111111">─</text>
    <text x="714.00" y="57.60" fill="#111111">─</text>
    <text x="726.00" y="57.60" fill="#111111">─</text>
    <text x="738.00" y="57.60" fill="#111111">─</text>
    <text x="750.00" y="57.60" fill="#111111">─</text>
    <text x="762.00" y="57.60" fill="#111111">─</text>
    <text x="774.00" y="57.60" fill="#111111">┬</text>
    <text x="786.00" y="57.60" fill="#111111">─</text>
    <text x="798.00" y="57.60" fill="#111111">─</text>
    <text x="810.00" y="57.60" fill="#111111">─</text>
    <text x="822.00" y="57.60" fill="#111111">─</text>
    <text x="834.00" y="57.60" fill="#111111">─</text>
    <text x="846.00" y="57.60" fill="#111111">─</text>
    <text x="858.00" y="57.60" fill="#111111">─</text>
    <text x="870.00" y="57.60" fill="#111111">─</text>
    <text x="882.00" y="57.60" fill="#111111">─</text>
    <text x="894.00" y="57.60" fill="#111111">─</text>
    <text x="906.00" y="57.60" fill="#111111">─</text>
    <text x="918.00" y="57.60" fill="#111111">┼</text>
    <text x="930.00" y="57.60" fill="#ffaf00">─</text>
    <text x="942.00" y="57.60" fill="#ffaf00">─</text>
    <text x="954.00" y="57.60" fill="#ffaf00">─</text>
    <text x="966.00" y="57.60" fill="#ffaf00">─</text>
    <text x="978.00" y="57.60" fill="#ffaf00">─</text>
    <text x="990.00" y="57.60" fill="#ffaf00">─</text>
    <text x="1002.00" y="57.60" fill="#ffaf00">─</text>
    <text x="1014.00" y="57.60" fill="#ffaf00">─</text>
    <text x="1026.00" y="57.60" fill="#ffaf00">─</text>
    <text x="1038.00" y="57.60" fill="#ffaf00">─</text>
    <text x="1050.00" y="57.60" fill="#ffaf00">─</text>
    <text x="1062.00" y="57.60" fill="#111111">┼</text>
    <text x="1074.00" y="57.60" fill="#ffaf00">─</text>
    <text x="1086.00" y="57.60" fill="#ffaf00">─</text>
    <text x="1098.00" y="57.60" fill="#ffaf00">─</text>
    <text x="1110.00" y="57.60" fill="#ffaf00">─</text>
    <text x="1122.00" y="57.60" fill="#ffaf00">─</text>
    <text x="1134.00" y="57.60" fill="#ffaf00">─</text>
    <text x="1146.00" y="57.60" fill="#ffaf00">─</text>
    <text x="1158.00" y="57.60" fill="#ffaf00">─</text>
    <text x="1170.00" y="57.60" fill="#ffaf00">─</text>
    <text x="1182.00" y="57.60" fill="#ffaf00">─</text>
    <text x="1194.00" y="57.60" fill="#ffaf00">─</text>
    <text x="1206.00" y="57.60" fill="#111111">┼</text>
    <text x="1218.00" y="57.60" fill="#ffaf00">─</text>
    <text x="1230.00" y="57.60" fill="#ffaf00">─</text>
    <text x="1242.00" y="57.60" fill="#ffaf00">─</text>
    <text x="1254.00" y="57.60" fill="#ffaf00">─</text>
    <text x="1266.00" y="57.60" fill="#ffaf00">─</text>
    <text x="1278.00" y="57.60" fill="#ffaf00">─</text>
    <text x="1290.00" y="57.60" fill="#ffaf00">─</text>
    <text x="1302.00" y="57.60" fill="#ffaf00">─</text>
    <text x="1314.00" y="57.60" fill="#ffaf00">─</text>
    <text x="1326.00" y="57.60" fill="#ffaf00">─</text>
    <text x="1338.00" y="57.60" fill="#ffaf00">─</text>
    <text x="1350.00" y="57.60" fill="#ffaf00">┤</text>
    <text x="486.00" y="69.60" fill="#111111">v</text>
    <text x="630.00" y="69.60" fill="#111111">v</text>
    <text x="774.00" y="69.60" fill="#ffaf00">v</text>
    <text x="918.00" y="69.60" fill="#111111">v</text>
    <text x="1062.00" y="69.60" fill="#5fd7ff">│</text>
    <text x="1206.00" y="69.60" fill="#00d7ff">│</text>
    <text x="1350.00" y="69.60" fill="#ffaf00">│</text>
    <text x="438.00" y="81.60" fill="#87ff00">┌</text>
    <text x="450.00" y="81.60" fill="#87ff00">─</text>
    <text x="462.00" y="81.60" fill="#87ff00">─</text>
    <text x="474.00" y="81.60" fill="#87ff00">─</text>
    <text x="486.00" y="81.60" fill="#87ff00">─</text>
    <text x="498.00" y="81.60" fill="#87ff00">─</text>
    <text x="510.00" y="81.60" fill="#87ff00">─</text>
    <text x="522.00" y="81.60" fill="#87ff00">┐</text>
    <text x="534.00" y="81.60" fill="#ff00af">─</text>
    <text x="546.00" y="81.60" fill="#ff00af">─</text>
    <text x="558.00" y="81.60" fill="#ff00af">─</text>
    <text x="570.00" y="81.60" fill="#ff00af">─</text>
    <text x="582.00" y="81.60" fill="#ff00af">┌</text>
    <text x="594.00" y="81.60" fill="#ff00af">─</text>
    <text x="606.00" y="81.60" fill="#ff00af">─</text>
    <text x="618.00" y="81.60" fill="#ff00af">─</text>
    <text x="630.00" y="81.60" fill="#ff00af">─</text>
    <text x="642.00" y="81.60" fill="#ff00af">─</text>
    <text x="654.00" y="81.60" fill="#ff00af">─</text>
    <text x="666.00" y="81.60" fill="#ff00af">┐</text>
    <text x="726.00" y="81.60" fill="#00afff">┌</text>
    <text x="738.00" y="81.60" fill="#00afff">─</text>
    <text x="750.00" y="81.60" fill="#00afff">─</text>
    <text x="762.00" y="81.60" fill="#00afff">─</text>
    <text x="774.00" y="81.60" fill="#00afff">─</text>
    <text x="786.00" y="81.60" fill="#00afff">─</text>
    <text x="798.00" y="81.60" fill="#00afff">─</text>
    <text x="810.00" y="81.60" fill="#00afff">┐</text>
    <text x="870.00" y="81.60" fill="#ffff00">┌</text>
    <text x="882.00" y="81.60" fill="#ffff00">─</text>
    <text x="894.00" y="81.60" fill="#ffff00">─</text>
    <text x="906.00" y="81.60" fill="#ffff00">─</text>
    <text x="918.00" y="81.60" fill="#ffff00">─</text>
    <text x="930.00" y="81.60" fill="#ffff00">─</text>
    <text x="942.00" y="81.60" fill="#ffff00">─</text>
    <text x="954.00" y="81.60" fill="#ffff00">┐</text>
    <text x="1062.00" y="81.60" fill="#5fd7ff">│</text>
    <text x="1206.00" y="81.60" fill="#00d7ff">│</text>
    <text x="1350.00" y="81.60" fill="#ffaf00">│</text>
    <text x="438.00" y="93.60" fill="#87ff00">│</text>
    <text x="462.00" y="93.60" fill="#87ff00">t</text>
    <text x="474.00" y="93.60" fill="#87ff00">e</text>
    <text x="486.00" y="93.60" fill="#87ff00">x</text>
    <text x="498.00" y="93.60" fill="#87ff00">t</text>
    <text x="522.00" y="93.60" fill="#87ff00">│</text>
    <text x="582.00" y="93.60" fill="#ff00af">│</text>
    <text x="618.00" y="93.60" fill="#ff00af">x</text>
    <text x="630.00" y="93.60" fill="#ff00af">1</text>
    <text x="642.00" y="93.60" fill="#00afff">─</text>
    <text x="654.00" y="93.60" fill="#00afff">─</text>
    <text x="666.00" y="93.60" fill="#ff00af">│</text>
    <text x="678.00" y="93.60" fill="#00afff">─</text>
    <text x="690.00" y="93.60" fill="#00afff">─</text>
    <text x="702.00" y="93.60" fill="#00afff">─</text>
    <text x="714.00" y="93.60" fill="#00afff">─</text>
    <text x="726.00" y="93.60" fill="#00afff">│</text>
    <text x="738.00" y="93.60" fill="#00afff">─</text>
    <text x="750.00" y="93.60" fill="#00afff">─</text>
    <text x="762.00" y="93.60" fill="#00afff">x</text>
    <text x="774.00" y="93.60" fill="#00afff">2</text>
    <text x="810.00" y="93.60" fill="#00afff">│</text>
    <text x="870.00" y="93.60" fill="#ffff00">│</text>
    <text x="906.00" y="93.60" fill="#ffff00">x</text>
    <text x="918.00" y="93.60" fill="#ffff00">3</text>
    <text x="954.00" y="93.60" fill="#ffff00">│</text>
    <text x="1062.00" y="93.60" fill="#5fd7ff">│</text>
    <text x="1206.00" y="93.60" fill="#00d7ff">│</text>
    <text x="1350.00" y="93.60" fill="#ffaf00">│</text>
    <text x="438.00" y="105.60" fill="#87ff00">└</text>
    <text x="450.00" y="105.60" fill="#87ff00">─</text>
    <text x="462.00" y="105.60" fill="#87ff00">─</text>
    <text x="474.00" y="105.60" fill="#87ff00">─</text>
    <text x="486.00" y="105.60" fill="#87ff00">─</text>
    <text x="498.00" y="105.60" fill="#87ff00">─</text>
    <text x="510.00" y="105.60" fill="#87ff00">─</text>
    <text x="522.00" y="105.60" fill="#87ff00">┘</text>
    <text x="582.00" y="105.60" fill="#ff00af">└</text>
    <text x="594.00" y="105.60" fill="#ff00af">─</text>
    <text x="606.00" y="105.60" fill="#ff00af">─</text>
    <text x="618.00" y="105.60" fill="#ff00af">─</text>
    <text x="630.00" y="105.60" fill="#ff00af">─</text>
    <text x="642.00" y="105.60" fill="#ff00af">─</text>
    <text x="654.00" y="105.60" fill="#ff00af">─</text>
    <text x="666.00" y="105.60" fill="#ff00af">┘</text>
    <text x="726.00" y="105.60" fill="#00afff">└</text>
    <text x="738.00" y="105.60" fill="#00afff">─</text>
    <text x="750.00" y="105.60" fill="#00afff">─</text>
    <text x="762.00" y="105.60" fill="#00afff">─</text>
    <text x="774.00" y="105.60" fill="#00afff">─</text>
    <text x="786.00" y="105.60" fill="#00afff">─</text>
    <text x="798.00" y="105.60" fill="#00afff">─</text>
    <text x="810.00" y="105.60" fill="#00afff">┘</text>
    <text x="870.00" y="105.60" fill="#ffff00">└</text>
    <text x="882.00" y="105.60" fill="#ffff00">─</text>
    <text x="894.00" y="105.60" fill="#ffff00">─</text>
    <text x="906.00" y="105.60" fill="#ffff00">─</text>
    <text x="918.00" y="105.60" fill="#ffff00">─</text>
    <text x="930.00" y="105.60" fill="#ffff00">─</text>
    <text x="942.00" y="105.60" fill="#ffff00">─</text>
    <text x="954.00" y="105.60" fill="#ffff00">┘</text>
    <text x="1062.00" y="105.60" fill="#5fd7ff">│</text>
    <text x="1206.00" y="105.60" fill="#00d7ff">│</text>
    <text x="1350.00" y="105.60" fill="#ffaf00">│</text>
    <text x="486.00" y="117.60" fill="#87ff00">├</text>
    <text x="498.00" y="117.60" fill="#87ff00">─</text>
    <text x="510.00" y="117.60" fill="#87ff00">─</text>
    <text x="522.00" y="117.60" fill="#87ff00">─</text>
    <text x="534.00" y="117.60" fill="#87ff00">─</text>
    <text x="546.00" y="117.60" fill="#87ff00">─</text>
    <text x="558.00" y="117.60" fill="#87ff00">─</text>
    <text x="570.00" y="117.60" fill="#87ff00">─</text>
    <text x="582.00" y="117.60" fill="#87ff00">─</text>
    <text x="594.00" y="117.60" fill="#87ff00">─</text>
    <text x="606.00" y="117.60" fill="#87ff00">─</text>
    <text x="618.00" y="117.60" fill="#87ff00">─</text>
    <text x="630.00" y="117.60" fill="#111111">┤</text>
    <text x="774.00" y="117.60" fill="#00afff">│</text>
    <text x="918.00" y="117.60" fill="#111111">│</text>
    <text x="1062.00" y="117.60" fill="#5fd7ff">│</text>
    <text x="1206.00" y="117.60" fill="#00d7ff">│</text>
    <text x="1350.00" y="117.60" fill="#ffaf00">│</text>
    <text x="486.00" y="129.60" fill="#111111">├</text>
    <text x="498.00" y="129.60" fill="#111111">─</text>
    <text x="510.00" y="129.60" fill="#111111">─</text>
    <text x="522.00" y="129.60" fill="#111111">─</text>
    <text x="534.00" y="129.60" fill="#111111">─</text>
    <text x="546.00" y="129.60" fill="#111111">─</text>
    <text x="558.00" y="129.60" fill="#111111">─</text>
    <text x="570.00" y="129.60" fill="#111111">─</text>
    <text x="582.00" y="129.60" fill="#111111">─</text>
    <text x="594.00" y="129.60" fill="#111111">─</text>
    <text x="606.00" y="129.60" fill="#111111">─</text>
    <text x="618.00" y="129.60" fill="#111111">─</text>
    <text x="630.00" y="129.60" fill="#111111">┼</text>
    <text x="642.00" y="129.60" fill="#111111">─</text>
    <text x="654.00" y="129.60" fill="#111111">─</text>
    <text x="666.00" y="129.60" fill="#111111">─</text>
    <text x="678.00" y="129.60" fill="#111111">─</text>
    <text x="690.00" y="129.60" fill="#111111">─</text>
    <text x="702.00" y="129.60" fill="#111111">─</text>
    <text x="714.00" y="129.60" fill="#111111">─</text>
    <text x="726.00" y="129.60" fill="#111111">─</text>
    <text x="738.00" y="129.60" fill="#111111">─</text>
    <text x="750.00" y="129.60" fill="#111111">─</text>
    <text x="762.00" y="129.60" fill="#111111">─</text>
    <text x="774.00" y="129.60" fill="#111111">┼</text>
    <text x="786.00" y="129.60" fill="#111111">─</text>
    <text x="798.00" y="129.60" fill="#111111">─</text>
    <text x="810.00" y="129.60" fill="#111111">─</text>
    <text x="822.00" y="129.60" fill="#111111">─</text>
    <text x="834.00" y="129.60" fill="#111111">─</text>
    <text x="846.00" y="129.60" fill="#111111">─</text>
    <text x="858.00" y="129.60" fill="#111111">─</text>
    <text x="870.00" y="129.60" fill="#111111">─</text>
    <text x="882.00" y="129.60" fill="#111111">─</text>
    <text x="894.00" y="129.60" fill="#111111">─</text>
    <text x="906.00" y="129.60" fill="#111111">─</text>
    <text x="918.00" y="129.60" fill="#111111">┼</text>
    <text x="930.00" y="129.60" fill="#ffaf00">─</text>
    <text x="942.00" y="129.60" fill="#ffaf00">─</text>
    <text x="954.00" y="129.60" fill="#ffaf00">─</text>
    <text x="966.00" y="129.60" fill="#ffaf00">─</text>
    <text x="978.00" y="129.60" fill="#ffaf00">─</text>
    <text x="990.00" y="129.60" fill="#ffaf00">─</text>
    <text x="1002.00" y="129.60" fill="#ffaf00">─</text>
    <text x="1014.00" y="129.60" fill="#ffaf00">─</text>
    <text x="1026.00" y="129.60" fill="#ffaf00">─</text>
    <text x="1038.00" y="129.60" fill="#ffaf00">─</text>
    <text x="1050.00" y="129.60" fill="#ffaf00">─</text>
    <text x="1062.00" y="129.60" fill="#111111">┼</text>
    <text x="1074.00" y="129.60" fill="#ffaf00">─</text>
    <text x="1086.00" y="129.60" fill="#ffaf00">─</text>
    <text x="1098.00" y="129.60" fill="#ffaf00">─</text>
    <text x="1110.00" y="129.60" fill="#ffaf00">─</text>
    <text x="1122.00" y="129.60" fill="#ffaf00">─</text>
    <text x="1134.00" y="129.60" fill="#ffaf00">─</text>
    <text x="1146.00" y="129.60" fill="#ffaf00">─</text>
    <text x="1158.00" y="129.60" fill="#ffaf00">─</text>
    <text x="1170.00" y="129.60" fill="#ffaf00">─</text>
    <text x="1182.00" y="129.60" fill="#ffaf00">─</text>
    <text x="1194.00" y="129.60" fill="#ffaf00">─</text>
    <text x="1206.00" y="129.60" fill="#111111">┼</text>
    <text x="1218.00" y="129.60" fill="#ffaf00">─</text>
    <text x="1230.00" y="129.60" fill="#ffaf00">─</text>
    <text x="1242.00" y="129.60" fill="#ffaf00">─</text>
    <text x="1254.00" y="129.60" fill="#ffaf00">─</text>
    <text x="1266.00" y="129.60" fill="#ffaf00">─</text>
    <text x="1278.00" y="129.60" fill="#ffaf00">─</text>
    <text x="1290.00" y="129.60" fill="#ffaf00">─</text>
    <text x="1302.00" y="129.60" fill="#ffaf00">─</text>
    <text x="1314.00" y="129.60" fill="#ffaf00">─</text>
    <text x="1326.00" y="129.60" fill="#ffaf00">─</text>
    <text x="1338.00" y="129.60" fill="#ffaf00">─</text>
    <text x="1350.00" y="129.60" fill="#ffaf00">┘</text>
    <text x="486.00" y="141.60" fill="#111111">v</text>
    <text x="630.00" y="141.60" fill="#111111">v</text>
    <text x="774.00" y="141.60" fill="#111111">v</text>
    <text x="918.00" y="141.60" fill="#111111">v</text>
    <text x="1062.00" y="141.60" fill="#5fd7ff">│</text>
    <text x="1206.00" y="141.60" fill="#00d7ff">│</text>
    <text x="438.00" y="153.60" fill="#d70000">┌</text>
    <text x="450.00" y="153.60" fill="#d70000">─</text>
    <text x="462.00" y="153.60" fill="#d70000">─</text>
    <text x="474.00" y="153.60" fill="#d70000">─</text>
    <text x="486.00" y="153.60" fill="#d70000">─</text>
    <text x="498.00" y="153.60" fill="#d70000">─</text>
    <text x="510.00" y="153.60" fill="#d70000">─</text>
    <text x="522.00" y="153.60" fill="#d70000">┐</text>
    <text x="558.00" y="153.60" fill="#d70000">┌</text>
    <text x="570.00" y="153.60" fill="#d70000">─</text>
    <text x="582.00" y="153.60" fill="#5fd7ff">┌</text>
    <text x="594.00" y="153.60" fill="#5fd7ff">─</text>
    <text x="606.00" y="153.60" fill="#5fd7ff">─</text>
    <text x="618.00" y="153.60" fill="#5fd7ff">─</text>
    <text x="630.00" y="153.60" fill="#5fd7ff">─</text>
    <text x="642.00" y="153.60" fill="#5fd7ff">─</text>
    <text x="654.00" y="153.60" fill="#5fd7ff">─</text>
    <text x="666.00" y="153.60" fill="#5fd7ff">┐</text>
    <text x="678.00" y="153.60" fill="#d70000">─</text>
    <text x="690.00" y="153.60" fill="#d70000">─</text>
    <text x="702.00" y="153.60" fill="#d70000">─</text>
    <text x="714.00" y="153.60" fill="#d70000">─</text>
    <text x="726.00" y="153.60" fill="#00d7ff">┌</text>
    <text x="738.00" y="153.60" fill="#00d7ff">─</text>
    <text x="750.00" y="153.60" fill="#00d7ff">─</text>
    <text x="762.00" y="153.60" fill="#00d7ff">─</text>
    <text x="774.00" y="153.60" fill="#00d7ff">─</text>
    <text x="786.00" y="153.60" fill="#00d7ff">─</text>
    <text x="798.00" y="153.60" fill="#00d7ff">─</text>
    <text x="810.00" y="153.60" fill="#00d7ff">┐</text>
    <text x="822.00" y="153.60" fill="#d70000">─</text>
    <text x="834.00" y="153.60" fill="#d70000">─</text>
    <text x="846.00" y="153.60" fill="#d70000">─</text>
    <text x="858.00" y="153.60" fill="#d70000">─</text>
    <text x="870.00" y="153.60" fill="#ffaf00">┌</text>
    <text x="882.00" y="153.60" fill="#ffaf00">─</text>
    <text x="894.00" y="153.60" fill="#ffaf00">─</text>
    <text x="906.00" y="153.60" fill="#ffaf00">─</text>
    <text x="918.00" y="153.60" fill="#ffaf00">─</text>
    <text x="930.00" y="153.60" fill="#ffaf00">─</text>
    <text x="942.00" y="153.60" fill="#ffaf00">─</text>
    <text x="954.00" y="153.60" fill="#ffaf00">┐</text>
    <text x="1062.00" y="153.60" fill="#5fd7ff">│</text>
    <text x="1206.00" y="153.60" fill="#00d7ff">│</text>
    <text x="438.00" y="165.60" fill="#d70000">│</text>
    <text x="462.00" y="165.60" fill="#d70000">m</text>
    <text x="474.00" y="165.60" fill="#d70000">a</text>
    <text x="486.00" y="165.60" fill="#d70000">t</text>
    <text x="498.00" y="165.60" fill="#d70000">h</text>
    <text x="522.00" y="165.60" fill="#d70000">│</text>
    <text x="558.00" y="165.60" fill="#d70000">│</text>
    <text x="582.00" y="165.60" fill="#5fd7ff">│</text>
    <text x="618.00" y="165.60" fill="#5fd7ff">x</text>
    <text x="630.00" y="165.60" fill="#5fd7ff">4</text>
    <text x="666.00" y="165.60" fill="#5fd7ff">│</text>
    <text x="702.00" y="165.60" fill="#5fd7ff">┌</text>
    <text x="714.00" y="165.60" fill="#5fd7ff">─</text>
    <text x="726.00" y="165.60" fill="#00d7ff">│</text>
    <text x="738.00" y="165.60" fill="#5fd7ff">─</text>
    <text x="750.00" y="165.60" fill="#5fd7ff">─</text>
    <text x="762.00" y="165.60" fill="#00d7ff">x</text>
    <text x="774.00" y="165.60" fill="#00d7ff">5</text>
    <text x="786.00" y="165.60" fill="#5fd7ff">─</text>
    <text x="798.00" y="165.60" fill="#5fd7ff">─</text>
    <text x="810.00" y="165.60" fill="#00d7ff">│</text>
    <text x="822.00" y="165.60" fill="#5fd7ff">─</text>
    <text x="834.00" y="165.60" fill="#5fd7ff">─</text>
    <text x="846.00" y="165.60" fill="#5fd7ff">─</text>
    <text x="858.00" y="165.60" fill="#5fd7ff">─</text>
    <text x="870.00" y="165.60" fill="#ffaf00">│</text>
    <text x="882.00" y="165.60" fill="#5fd7ff">─</text>
    <text x="894.00" y="165.60" fill="#5fd7ff">─</text>
    <text x="906.00" y="165.60" fill="#ffaf00">x</text>
    <text x="918.00" y="165.60" fill="#ffaf00">6</text>
    <text x="930.00" y="165.60" fill="#5fd7ff">─</text>
    <text x="942.00" y="165.60" fill="#5fd7ff">─</text>
    <text x="954.00" y="165.60" fill="#ffaf00">│</text>
    <text x="966.00" y="165.60" fill="#5fd7ff">─</text>
    <text x="978.00" y="165.60" fill="#5fd7ff">─</text>
    <text x="990.00" y="165.60" fill="#5fd7ff">─</text>
    <text x="1002.00" y="165.60" fill="#5fd7ff">─</text>
    <text x="1014.00" y="165.60" fill="#5fd7ff">─</text>
    <text x="1026.00" y="165.60" fill="#5fd7ff">─</text>
    <text x="1038.00" y="165.60" fill="#5fd7ff">─</text>
    <text x="1050.00" y="165.60" fill="#5fd7ff">─</text>
    <text x="1062.00" y="165.60" fill="#5fd7ff">┘</text>
    <text x="1206.00" y="165.60" fill="#00d7ff">│</text>
    <text x="438.00" y="177.60" fill="#d70000">└</text>
    <text x="450.00" y="177.60" fill="#d70000">─</text>
    <text x="462.00" y="177.60" fill="#d70000">─</text>
    <text x="474.00" y="177.60" fill="#d70000">─</text>
    <text x="486.00" y="177.60" fill="#d70000">─</text>
    <text x="498.00" y="177.60" fill="#d70000">─</text>
    <text x="510.00" y="177.60" fill="#d70000">─</text>
    <text x="522.00" y="177.60" fill="#d70000">┘</text>
    <text x="558.00" y="177.60" fill="#d70000">│</text>
    <text x="582.00" y="177.60" fill="#5fd7ff">└</text>
    <text x="594.00" y="177.60" fill="#5fd7ff">─</text>
    <text x="606.00" y="177.60" fill="#5fd7ff">─</text>
    <text x="618.00" y="177.60" fill="#5fd7ff">─</text>
    <text x="630.00" y="177.60" fill="#5fd7ff">─</text>
    <text x="642.00" y="177.60" fill="#5fd7ff">─</text>
    <text x="654.00" y="177.60" fill="#5fd7ff">─</text>
    <text x="666.00" y="177.60" fill="#5fd7ff">┘</text>
    <text x="702.00" y="177.60" fill="#5fd7ff">│</text>
    <text x="726.00" y="177.60" fill="#00d7ff">└</text>
    <text x="738.00" y="177.60" fill="#00d7ff">─</text>
    <text x="750.00" y="177.60" fill="#00d7ff">─</text>
    <text x="762.00" y="177.60" fill="#00d7ff">─</text>
    <text x="774.00" y="177.60" fill="#00d7ff">─</text>
    <text x="786.00" y="177.60" fill="#00d7ff">─</text>
    <text x="798.00" y="177.60" fill="#00d7ff">─</text>
    <text x="810.00" y="177.60" fill="#00d7ff">┘</text>
    <text x="846.00" y="177.60" fill="#00d7ff">┌</text>
    <text x="858.00" y="177.60" fill="#00d7ff">─</text>
    <text x="870.00" y="177.60" fill="#ffaf00">└</text>
    <text x="882.00" y="177.60" fill="#ffaf00">─</text>
    <text x="894.00" y="177.60" fill="#ffaf00">─</text>
    <text x="906.00" y="177.60" fill="#ffaf00">─</text>
    <text x="918.00" y="177.60" fill="#ffaf00">─</text>
    <text x="930.00" y="177.60" fill="#ffaf00">─</text>
    <text x="942.00" y="177.60" fill="#ffaf00">─</text>
    <text x="954.00" y="177.60" fill="#ffaf00">┘</text>
    <text x="966.00" y="177.60" fill="#00d7ff">─</text>
    <text x="978.00" y="177.60" fill="#00d7ff">─</text>
    <text x="990.00" y="177.60" fill="#00d7ff">─</text>
    <text x="1002.00" y="177.60" fill="#00d7ff">─</text>
    <text x="1014.00" y="177.60" fill="#00d7ff">─</text>
    <text x="1026.00" y="177.60" fill="#00d7ff">─</text>
    <text x="1038.00" y="177.60" fill="#00d7ff">─</text>
    <text x="1050.00" y="177.60" fill="#00d7ff">─</text>
    <text x="1062.00" y="177.60" fill="#00d7ff">─</text>
    <text x="1074.00" y="177.60" fill="#00d7ff">─</text>
    <text x="1086.00" y="177.60" fill="#00d7ff">─</text>
    <text x="1098.00" y="177.60" fill="#00d7ff">─</text>
    <text x="1110.00" y="177.60" fill="#00d7ff">─</text>
    <text x="1122.00" y="177.60" fill="#00d7ff">─</text>
    <text x="1134.00" y="177.60" fill="#00d7ff">─</text>
    <text x="1146.00" y="177.60" fill="#00d7ff">─</text>
    <text x="1158.00" y="177.60" fill="#00d7ff">─</text>
    <text x="1170.00" y="177.60" fill="#00d7ff">─</text>
    <text x="1182.00" y="177.60" fill="#00d7ff">─</text>
    <text x="1194.00" y="177.60" fill="#00d7ff">─</text>
    <text x="1206.00" y="177.60" fill="#00d7ff">┘</text>
    <text x="486.00" y="189.60" fill="#d70000">├</text>
    <text x="498.00" y="189.60" fill="#d70000">─</text>
    <text x="510.00" y="189.60" fill="#d70000">─</text>
    <text x="522.00" y="189.60" fill="#d70000">─</text>
    <text x="534.00" y="189.60" fill="#d70000">─</text>
    <text x="546.00" y="189.60" fill="#d70000">─</text>
    <text x="558.00" y="189.60" fill="#d70000">┤</text>
    <text x="702.00" y="189.60" fill="#5fd7ff">│</text>
    <text x="846.00" y="189.60" fill="#00d7ff">│</text>
    <text x="486.00" y="201.60" fill="#d70000">└</text>
    <text x="498.00" y="201.60" fill="#d70000">─</text>
    <text x="510.00" y="201.60" fill="#d70000">─</text>
    <text x="522.00" y="201.60" fill="#d70000">─</text>
    <text x="534.00" y="201.60" fill="#d70000">─</text>
    <text x="546.00" y="201.60" fill="#d70000">─</text>
    <text x="558.00" y="201.60" fill="#d70000">┼</text>
    <text x="570.00" y="201.60" fill="#d70000">─</text>
    <text x="582.00" y="201.60" fill="#d70000">─</text>
    <text x="594.00" y="201.60" fill="#d70000">─</text>
    <text x="606.00" y="201.60" fill="#d70000">─</text>
    <text x="618.00" y="201.60" fill="#d70000">─</text>
    <text x="630.00" y="201.60" fill="#d70000">─</text>
    <text x="642.00" y="201.60" fill="#d70000">─</text>
    <text x="654.00" y="201.60" fill="#d70000">─</text>
    <text x="666.00" y="201.60" fill="#d70000">─</text>
    <text x="678.00" y="201.60" fill="#d70000">─</text>
    <text x="690.00" y="201.60" fill="#d70000">─</text>
    <text x="702.00" y="201.60" fill="#111111">┼</text>
    <text x="714.00" y="201.60" fill="#d70000">─</text>
    <text x="726.00" y="201.60" fill="#d70000">─</text>
    <text x="738.00" y="201.60" fill="#d70000">─</text>
    <text x="750.00" y="201.60" fill="#d70000">─</text>
    <text x="762.00" y="201.60" fill="#d70000">─</text>
    <text x="774.00" y="201.60" fill="#d70000">─</text>
    <text x="786.00" y="201.60" fill="#d70000">─</text>
    <text x="798.00" y="201.60" fill="#d70000">─</text>
    <text x="810.00" y="201.60" fill="#d70000">─</text>
    <text x="822.00" y="201.60" fill="#d70000">─</text>
    <text x="834.00" y="201.60" fill="#d70000">─</text>
    <text x="846.00" y="201.60" fill="#111111">┤</text>
    <text x="558.00" y="213.60" fill="#d70000">v</text>
    <text x="702.00" y="213.60" fill="#111111">v</text>
    <text x="846.00" y="213.60" fill="#111111">v</text>
    <text x="510.00" y="225.60" fill="#87ff00">┌</text>
    <text x="522.00" y="225.60" fill="#87ff00">─</text>
    <text x="534.00" y="225.60" fill="#87ff00">─</text>
    <text x="546.00" y="225.60" fill="#87ff00">─</text>
    <text x="558.00" y="225.60" fill="#87ff00">─</text>
    <text x="570.00" y="225.60" fill="#87ff00">─</text>
    <text x="582.00" y="225.60" fill="#87ff00">─</text>
    <text x="594.00" y="225.60" fill="#87ff00">┐</text>
    <text x="654.00" y="225.60" fill="#ff00af">┌</text>
    <text x="666.00" y="225.60" fill="#ff00af">─</text>
    <text x="678.00" y="225.60" fill="#ff00af">─</text>
    <text x="690.00" y="225.60" fill="#ff00af">─</text>
    <text x="702.00" y="225.60" fill="#ff00af">─</text>
    <text x="714.00" y="225.60" fill="#ff00af">─</text>
    <text x="726.00" y="225.60" fill="#ff00af">─</text>
    <text x="738.00" y="225.60" fill="#ff00af">┐</text>
    <text x="798.00" y="225.60" fill="#00afff">┌</text>
    <text x="810.00" y="225.60" fill="#00afff">─</text>
    <text x="822.00" y="225.60" fill="#00afff">─</text>
    <text x="834.00" y="225.60" fill="#00afff">─</text>
    <text x="846.00" y="225.60" fill="#00afff">─</text>
    <text x="858.00" y="225.60" fill="#00afff">─</text>
    <text x="870.00" y="225.60" fill="#00afff">─</text>
    <text x="882.00" y="225.60" fill="#00afff">┐</text>
    <text x="510.00" y="237.60" fill="#87ff00">│</text>
    <text x="546.00" y="237.60" fill="#87ff00">x</text>
    <text x="558.00" y="237.60" fill="#87ff00">7</text>
    <text x="594.00" y="237.60" fill="#87ff00">│</text>
    <text x="654.00" y="237.60" fill="#ff00af">│</text>
    <text x="690.00" y="237.60" fill="#ff00af">x</text>
    <text x="702.00" y="237.60" fill="#ff00af">8</text>
    <text x="738.00" y="237.60" fill="#ff00af">│</text>
    <text x="798.00" y="237.60" fill="#00afff">│</text>
    <text x="834.00" y="237.60" fill="#00afff">x</text>
    <text x="846.00" y="237.60" fill="#00afff">9</text>
    <text x="882.00" y="237.60" fill="#00afff">│</text>
    <text x="510.00" y="249.60" fill="#87ff00">└</text>
    <text x="522.00" y="249.60" fill="#87ff00">─</text>
    <text x="534.00" y="249.60" fill="#87ff00">─</text>
    <text x="546.00" y="249.60" fill="#87ff00">─</text>
    <text x="558.00" y="249.60" fill="#87ff00">─</text>
    <text x="570.00" y="249.60" fill="#87ff00">─</text>
    <text x="582.00" y="249.60" fill="#87ff00">─</text>
    <text x="594.00" y="249.60" fill="#87ff00">┘</text>
    <text x="654.00" y="249.60" fill="#ff00af">└</text>
    <text x="666.00" y="249.60" fill="#ff00af">─</text>
    <text x="678.00" y="249.60" fill="#ff00af">─</text>
    <text x="690.00" y="249.60" fill="#ff00af">─</text>
    <text x="702.00" y="249.60" fill="#ff00af">─</text>
    <text x="714.00" y="249.60" fill="#ff00af">─</text>
    <text x="726.00" y="249.60" fill="#ff00af">─</text>
    <text x="738.00" y="249.60" fill="#ff00af">┘</text>
    <text x="798.00" y="249.60" fill="#00afff">└</text>
    <text x="810.00" y="249.60" fill="#00afff">─</text>
    <text x="822.00" y="249.60" fill="#00afff">─</text>
    <text x="834.00" y="249.60" fill="#00afff">─</text>
    <text x="846.00" y="249.60" fill="#00afff">─</text>
    <text x="858.00" y="249.60" fill="#00afff">─</text>
    <text x="870.00" y="249.60" fill="#00afff">─</text>
    <text x="882.00" y="249.60" fill="#00afff">┘</text>
  </g>
</svg>
